<svg width="1088" height="1080" viewBox="0 0 1088 1080" fill="none" xmlns="http://www.w3.org/2000/svg">
<path opacity="0.1" d="M1249.78 706.588L1042.7 644.579C1057.64 622.723 1071.18 600.831 1076.18 586.801C1080.34 575.168 1082.03 566.037 1081.96 558.846L1129.85 510.303L1016.34 405.428L964.322 459.822C960.622 438.741 956.534 415.898 952.763 395.275L1073.92 233.291C1075.93 230.612 1076.71 227.228 1076.07 223.949L1065.92 171.987L1091.16 131.8L1090.52 131.588C1090.52 131.588 1090.63 131.588 1090.66 131.588C1100.64 130.284 1108.5 119.356 1111.46 114.667C1114.17 114.174 1117.94 113.01 1120.16 110.049C1123.9 105.079 1118.82 101.694 1118.82 101.694C1122.63 96.1245 1117.02 93.4454 1117.02 93.4454C1116.35 93.4454 1115.79 93.9036 1115.16 94.7497C1112.55 97.4641 1110.96 99.0505 1110.96 99.0505C1110.96 99.0505 1125.69 76.2422 1129.39 72.0825C1133.09 67.958 1130.87 64.5385 1127.95 64.7853C1125.06 64.9968 1101.24 97.8166 1101.24 97.8166C1101.24 97.8166 1113.36 75.925 1117.98 69.086C1122.56 62.2471 1119.46 57.9111 1115.9 60.414C1112.34 62.9169 1087.77 104.056 1087.77 104.056C1084.99 104.867 1087.95 99.403 1090.52 90.6604C1093.1 81.9179 1087.6 76.5595 1084.74 81.3538C1081.85 86.1481 1075.62 122.317 1075.19 124.326C1075.09 124.926 1075.26 125.948 1075.93 127.041L1075.72 126.97L1052.29 150.977C1049.33 150.907 1046.26 151.929 1043.83 154.326L902.261 291.88C899.724 290.153 897.151 288.496 894.508 287.016C897.821 276.228 904.517 269.425 904.517 269.425C935.107 255.535 940.146 237.028 940.921 216.617C941.027 213.726 940.921 210.835 940.71 207.945C942.296 207.169 943.846 206.253 945.256 205.089C950.014 201.247 953.009 195.747 953.644 189.649C954.983 177.134 945.961 165.889 933.485 164.408C933.38 164.408 933.309 164.408 933.203 164.408C933.098 164.408 933.027 164.408 932.922 164.408C932.64 163.809 932.287 163.245 931.899 162.716L955.547 139.555L856.834 49.38L754.14 157.992L775.849 177.205C772.747 177.734 765.981 179.567 761.153 185.983C760.836 186.406 760.589 186.864 760.307 187.287L720.872 128.239C719.427 126.054 717.524 124.573 715.409 123.692L693.418 91.0129H693.207C693.207 91.0129 693.524 90.6604 693.63 90.4842C693.63 90.4842 693.665 90.4137 693.7 90.3784C693.947 90.0259 694.123 89.6734 694.229 89.3561C694.229 89.3561 694.229 89.3208 694.229 89.2856C694.335 88.9683 694.405 88.6863 694.405 88.4395C694.405 88.2985 694.405 87.946 694.405 87.523C694.405 86.7827 694.405 85.6898 694.405 84.315C694.405 84.1387 694.405 83.9272 694.405 83.751C694.405 81.5301 694.405 78.6747 694.405 75.5019C694.37 69.4033 694.264 62.2471 694.017 56.219L707.163 45.467L710.722 42.5763L742.193 16.8069L755.761 5.70246L737.189 -17L715.938 0.414619L712.378 3.30531L691.727 20.2264L688.661 22.7646L673.683 35.0323C670.264 26.5718 667.163 19.4156 666 18.2523C662.969 15.1501 659.128 18.8516 662.405 26.4308C663.674 29.3215 665.612 34.6446 667.551 40.0734L665.683 41.5893C660.643 31.6834 654.864 20.8257 653.313 20.4379C650.494 19.6976 647.674 22.6235 650.599 27.3826C652.256 30.0618 656.273 39.2274 659.445 46.7008L657.824 48.0052C653.983 42.2943 649.366 35.6669 647.252 33.7985C643.34 30.3438 643.763 37.7468 646.793 41.977C648.062 43.7397 650.635 47.7232 653.172 51.7772L649.683 54.6326C647.005 52.6585 644.608 51.0721 643.551 50.9311C640.626 50.5786 640.802 53.0462 642.212 54.8441C642.564 55.3024 643.833 56.4657 645.56 57.9816L627.551 72.7523L623.992 75.643L603.798 92.1763L600.239 95.067L588.01 105.079L606.582 127.781L618.811 117.769L622.371 114.879L625.648 112.2L664.485 80.402C667.516 85.4783 671.991 90.9072 677.947 92.8461C677.982 92.8461 678.053 92.8461 678.088 92.8813L677.418 92.9518L696.555 140.824L681.225 203.714C680.59 206.394 680.837 209.179 681.965 211.681L700.925 254.09L694.934 254.301L695.075 257.862L702.511 257.615L705.718 264.771L703.568 266.851L706.035 269.425L707.268 268.261L757.77 381.315C734.158 434.617 714.88 499.692 708.008 548.728L703.991 547.424C699.304 545.626 695.92 547.741 693.735 551.654C692.396 549.962 690.987 548.235 689.542 546.437C687.885 544.428 686.229 542.383 684.608 540.444C683.797 539.492 682.987 538.54 682.211 537.624C682.141 537.518 682.035 537.448 681.965 537.342L685.771 520.209L686.44 517.178L692.678 489.258L692.854 488.412L695.956 474.558L699.903 456.861L685.418 453.618C686.969 452.983 688.414 452.172 689.683 451.009L747.585 398.448C756.008 390.798 752.589 376.909 741.594 374.018L509.949 313.419L509.35 312.115L508.857 313.137L508.117 312.961C509.068 299.354 513.192 285.923 518.337 274.043L525.209 279.507L539.235 264.278C540.539 263.15 541.702 261.916 542.689 260.506L614.829 182.105L497.721 81.2833L425.581 162.223C423.995 161.694 422.268 161.306 420.365 161.13C410.955 160.319 400.947 165.148 390.585 175.548C377.546 188.626 365.493 187.78 357.67 184.784C346.392 180.448 338.78 169.802 337.265 162.787V161.306L337.582 160.072L337.265 160.002V139.309H333.599V154.784L324.049 140.754L321.018 142.834L331.767 158.662L317.846 155.207L316.965 158.768L333.599 162.892C335.115 171.635 344.207 183.515 356.401 188.203C365.247 191.588 378.815 192.61 393.229 178.157C402.744 168.603 411.766 164.126 420.048 164.831C421.07 164.902 421.986 165.113 422.902 165.325L405.81 184.537L430.444 204.137C422.374 216.899 417.686 231.881 417.545 247.039C417.545 247.604 417.545 248.132 417.545 248.696C415.642 249.754 414.62 252.222 413.034 256.628C410.18 264.63 413.775 290.4 433.122 303.232L190.518 234.137C185.795 232.48 182.447 234.736 180.439 238.72C179.029 237.098 177.584 235.371 176.069 233.679C174.342 231.705 172.615 229.731 170.923 227.862C170.078 226.91 169.267 225.994 168.456 225.113C168.386 225.007 168.28 224.936 168.21 224.831L171.417 207.557L171.981 204.49L177.232 176.359L177.373 175.513L179.98 161.588L183.293 143.786L153.514 138.216L137.937 221.693C129.62 217.287 122.36 213.726 120.669 213.55C116.193 213.127 115.629 218.626 123.276 222.398C126.202 223.843 131.276 226.734 136.422 229.731L135.963 232.163C125.391 227.686 113.585 222.962 112.105 223.667C109.391 224.972 109.109 229.167 114.572 230.964C117.673 231.987 126.942 236.57 134.448 240.342L134.06 242.457C127.224 240.483 119.153 238.332 116.263 238.262C110.871 238.121 116.158 243.691 121.373 245.03C123.558 245.594 128.21 247.039 132.933 248.52L132.087 253.138C128.633 253.35 125.673 253.702 124.792 254.301C122.254 255.994 124.017 257.827 126.342 258.285C126.942 258.391 128.704 258.496 131.065 258.567L120.845 313.455L120.351 316.028L116.968 334.183L146.747 339.753L149.743 323.678L150.025 322.233L155.558 292.48L156.263 288.743L160.95 263.679C166.73 265.653 173.884 266.992 179.875 264.525C179.98 264.489 180.051 264.454 180.121 264.419L190.87 326.992C191.857 330.905 194.43 334.218 197.989 336.157L355.696 420.516C355.59 424.535 355.52 428.871 355.485 432.713C355.485 435.287 355.485 437.613 355.485 439.411C355.485 439.587 355.485 439.728 355.485 439.869C355.485 440.997 355.485 441.914 355.485 442.478C355.485 442.831 355.485 443.113 355.485 443.254C355.485 443.43 355.52 443.677 355.626 443.923C355.626 443.923 355.626 443.923 355.626 443.959C355.731 444.205 355.872 444.487 356.048 444.769C356.048 444.769 356.048 444.805 356.084 444.84C356.189 444.981 356.295 445.122 356.436 445.298H356.26L338.357 471.878C336.666 472.583 335.08 473.817 333.917 475.58L301.847 523.629C301.6 523.276 301.424 522.888 301.177 522.571C297.23 517.354 291.732 515.873 289.23 515.45L306.921 499.798L223.363 411.421L143.047 484.816L162.289 503.641C161.972 504.064 161.69 504.522 161.443 505.016C161.373 505.016 161.302 505.016 161.232 505.016C161.161 505.016 161.091 505.016 161.02 505.016C150.906 506.214 143.54 515.38 144.633 525.532C145.162 530.503 147.593 534.945 151.47 538.117C152.633 539.034 153.866 539.81 155.17 540.444C154.994 542.806 154.888 545.168 154.994 547.53C155.628 564.169 159.716 579.186 184.632 590.502C184.632 590.502 190.095 596.037 192.773 604.815C190.624 606.013 188.509 607.353 186.465 608.763L71.2595 496.837C69.286 494.898 66.7838 494.052 64.3874 494.123L45.3216 474.593H45.1454C45.674 473.747 45.8502 472.901 45.7445 472.407C45.3921 470.75 40.3172 441.35 37.956 437.437C35.6301 433.524 31.1544 437.895 33.2336 445.016C35.3129 452.137 37.7094 456.579 35.4539 455.909C35.4539 455.909 15.4718 422.419 12.582 420.41C9.69213 418.365 7.15472 421.926 10.8903 427.461C14.626 433.03 24.4937 450.868 24.4937 450.868C24.4937 450.868 5.11069 424.182 2.74949 424.006C0.388291 423.83 -1.44428 426.579 1.58651 429.963C4.61731 433.348 16.5995 451.89 16.5995 451.89C16.5995 451.89 15.3308 450.586 13.1811 448.4C12.6877 447.695 12.2295 447.308 11.6657 447.343C11.6657 447.343 7.08423 449.529 10.1855 454.076C10.1855 454.076 6.02698 456.826 9.09302 460.88C10.8903 463.277 13.9916 464.229 16.1766 464.616C18.5731 468.424 24.9518 477.343 33.0927 478.4C33.1279 478.4 33.1632 478.4 33.2336 478.4L32.705 478.576L53.251 511.255L45.0044 553.523C44.4758 556.202 45.1101 558.952 46.7313 561.137L145.338 692.945C136.316 741.946 125.426 806.14 125.426 806.14C125.426 806.14 125.497 806.14 125.602 806.14C125.602 806.14 125.602 806.14 125.567 806.14C125.532 806.14 125.426 806.14 125.426 806.14C125.426 806.14 125.356 806.14 125.215 806.14C107.981 804.131 91.9112 804.025 79.2242 804.625C77.9202 804.625 76.6163 804.625 75.2419 804.589C39.7181 804.343 41.0573 819.466 41.0573 819.466C39.2952 825.952 40.1058 835.329 44.9339 848.76C53.8501 873.613 95.6821 928.959 110.484 948.137C110.73 947.96 110.977 947.784 111.259 947.573L115.876 960.686C113.021 964.494 110.871 968.865 110.871 968.865L95.9993 990.686C94.0257 993.859 96.3165 993.718 96.3165 993.718C96.3165 993.718 142.8 967.384 140.827 959.594C138.853 951.768 127.893 949.124 127.893 949.124L122.043 940.099C123.171 939.394 124.334 938.689 125.497 938.019C123.135 931.533 120.598 924.588 118.801 919.794C114.431 908.055 113.197 868.748 113.197 868.748C143.999 886.48 215.539 884.577 215.539 884.577C215.539 884.577 186.359 933.613 186.676 944.365C186.676 945.14 186.853 946.374 187.099 947.96C187.099 948.101 187.135 948.277 187.17 948.419C192.104 981.556 207.293 1039.48 207.293 1039.48C207.575 1040.6 208.103 1041.63 208.808 1042.54L209.795 1051.81C209.619 1052.03 209.478 1052.27 209.337 1052.59C207.892 1055.41 207.575 1073.78 207.117 1075.47C206.659 1077.16 205.883 1107.19 213.319 1102.72C220.755 1098.24 222.553 1078.04 222.553 1078.04L224.315 1064.61C225.442 1055.9 221.178 1053.12 221.178 1053.12C221.072 1053.12 220.967 1053.08 220.826 1053.05L221.812 1043.11C222.694 1042.12 223.363 1040.96 223.716 1039.62C228.05 1023.15 239.892 993.824 244.931 977.607C250.676 958.959 246.517 943.695 289.9 912.532C283.944 950.075 338.921 912.25 346.11 857.503C348.26 841.04 345.335 815.694 338.956 787.28L439.924 713.004C472.346 711.488 503.359 699.256 531.588 687.164L580.574 918.278L585.719 918.348L585.332 926.985C585.332 926.985 572.856 939.077 576.345 950.992C579.834 962.907 662.088 961.532 662.088 961.532C662.088 961.532 665.225 959.946 660.15 957.267L623.358 939.888C623.358 939.888 617.049 935.728 610.318 932.908L607.534 918.63H610.565C610.565 918.63 617.366 908.442 625.437 889.159C625.437 889.159 651.657 833.531 651.833 757.492C651.974 750.407 651.939 743.145 651.727 735.671C651.304 721.887 650.529 708.985 649.542 696.894C651.375 694.567 652.679 691.747 653.56 688.645C653.56 689.455 653.56 690.16 653.489 690.795C655.745 678.492 656.837 664.708 656.837 649.938L660.08 635.343L660.397 633.898L666.987 604.356L667.797 600.655L673.33 575.767C679.04 577.952 686.158 579.539 692.22 577.283C692.326 577.283 692.396 577.212 692.502 577.177L701.066 640.102C701.911 644.05 704.378 647.47 707.867 649.479L741.277 668.868C750.757 678.245 760.131 683.674 766.721 683.639L822.509 716.036C826.597 726.188 827.408 735.213 830.438 745.048C836.007 763.133 848.517 794.437 854.755 815.2C834.738 894.095 835.548 966.468 835.619 971.756C833.892 973.412 832.165 975.105 830.403 976.797C826.28 980.851 822.333 984.94 818.562 988.994C818.315 989.241 818.068 989.523 817.822 989.805C778.633 1031.83 757.135 1072.19 745.752 1100.11C745.576 1100.57 745.47 1100.85 745.47 1100.85C736.343 1123.38 733.841 1137.58 733.841 1137.58L738.281 1141.71L724.255 1151.01C717.524 1148.19 710.123 1146.61 710.123 1146.61L671.921 1132.61C666.458 1130.88 667.516 1134.23 667.516 1134.23C667.516 1134.23 724.361 1193.74 735.286 1187.85C746.21 1181.96 746.069 1164.59 746.069 1164.59L753.893 1156.12L755.831 1157.92L936.375 1034.61C968.833 1034.22 1000.27 1023.08 1028.89 1011.98L1069.77 1244.68L1074.91 1244.93L1074.24 1253.53C1074.24 1253.53 1061.38 1265.16 1064.44 1277.22C1067.51 1289.24 1149.76 1290.79 1149.76 1290.79C1149.76 1290.79 1152.97 1289.31 1147.97 1286.45L1111.81 1267.8C1111.81 1267.8 1105.64 1263.43 1099.02 1260.4L1096.73 1246.05L1099.72 1246.19C1099.72 1246.19 1106.88 1236.22 1115.61 1217.22C1115.61 1217.22 1143.74 1162.58 1146.63 1086.54C1147.02 1079.49 1147.26 1072.22 1147.3 1064.75C1147.37 1050.97 1147.05 1038.03 1146.49 1025.9C1148.43 1023.65 1149.8 1020.86 1150.79 1017.8C1150.79 1018.61 1150.72 1019.31 1150.65 1019.95C1164.25 958.36 1148.99 858.772 1117.41 775.788L1184.09 784.707C1188.11 785.236 1192.12 784.073 1195.23 781.464L1254.93 730.983C1263.6 723.65 1260.67 709.62 1249.78 706.341V706.588ZM946.525 188.521C947.653 187.005 948.428 185.172 948.639 183.162C948.815 181.4 948.534 179.672 947.97 178.121C949.732 181.435 950.578 185.277 950.155 189.296C949.626 194.443 947.089 199.096 943.071 202.34C942.225 203.009 941.309 203.573 940.393 204.102C940.393 203.891 940.322 203.644 940.287 203.432C944.093 201.987 947.018 198.568 947.476 194.232C947.688 192.222 947.3 190.283 946.525 188.556V188.521ZM934.084 170.436C934.155 169.661 934.155 168.92 934.084 168.18C937.785 168.815 941.098 170.436 943.741 172.798C942.296 171.811 940.604 171.141 938.736 170.93C937.01 170.754 935.353 171 933.838 171.564C933.908 171.177 934.014 170.824 934.084 170.436ZM686.898 65.9486C686.828 66.1954 686.687 66.3716 686.476 66.4069C686.299 66.4774 686.018 66.4069 685.7 66.2306C685.7 66.2306 685.63 66.0896 685.559 65.8781C685.489 65.6666 685.348 65.3493 685.207 64.891C685.207 64.891 685.207 64.891 685.207 64.8558C685.136 64.6442 685.066 64.4327 684.96 64.186C684.925 64.0802 684.89 64.0097 684.854 63.904C684.854 63.904 684.854 63.7982 684.784 63.7629L686.722 62.1766C686.863 63.2342 686.969 64.186 686.969 64.891C686.969 65.3493 686.969 65.7018 686.863 65.9486H686.898ZM168.315 238.297C168.315 238.297 168.104 238.191 167.752 237.98C167.646 237.944 167.54 237.874 167.434 237.803C167.364 237.803 167.329 237.733 167.258 237.698C167.082 237.592 166.906 237.521 166.73 237.38C166.589 237.31 166.448 237.239 166.307 237.134C166.236 237.098 166.201 237.063 166.13 237.028C166.13 237.028 166.025 236.993 165.989 236.957L166.483 234.384C168.95 236.605 170.042 237.909 168.386 238.297H168.315ZM155.452 537.307C154.712 536.884 153.972 536.425 153.267 535.861C149.99 533.217 147.946 529.445 147.488 525.25C147.135 521.972 147.84 518.87 149.285 516.155C148.792 517.424 148.58 518.834 148.721 520.28C148.897 521.937 149.532 523.382 150.448 524.651C149.814 526.061 149.496 527.648 149.673 529.269C150.06 532.794 152.421 535.615 155.523 536.743C155.523 536.919 155.452 537.095 155.452 537.271V537.307ZM156.756 510.339C155.241 510.515 153.866 511.044 152.703 511.854C154.853 509.916 157.531 508.611 160.562 508.083C160.492 508.682 160.492 509.316 160.562 509.916C160.562 510.233 160.703 510.515 160.738 510.832C159.505 510.374 158.166 510.162 156.756 510.339ZM362.991 424.323C362.921 424.535 362.85 424.746 362.78 424.852C362.709 425.028 362.674 425.134 362.674 425.134C362.427 425.275 362.216 425.31 362.04 425.275C361.863 425.24 361.758 425.099 361.722 424.887C361.652 424.676 361.617 424.394 361.617 424.041C361.617 423.935 361.617 423.759 361.617 423.618L362.956 424.323H362.991ZM230.235 582.465C230.94 582.571 231.645 582.606 232.385 582.535C237.354 582.007 240.949 577.565 240.42 572.594C240.173 570.409 239.187 568.54 237.742 567.13C242.147 566.249 245.284 562.265 245.002 557.718C246.341 555.99 247.469 553.91 248.279 551.76L287.856 516.755L287.785 518.2C287.785 518.2 294.587 518.623 298.957 524.369C299.415 524.968 299.838 525.638 300.19 526.308L248.526 603.651C242.006 600.056 235.381 597.976 228.755 597.2C228.755 592.265 229.319 587.365 230.271 582.535L230.235 582.465ZM304.067 681.524L337.088 607.635C336.102 633.757 336.912 651.277 337.053 653.745C335.397 655.472 333.705 657.2 332.014 658.997C328.031 663.192 324.26 667.423 320.595 671.583C320.349 671.865 320.137 672.147 319.89 672.429C315.309 677.681 311.009 682.934 306.921 688.116C305.97 685.895 305.054 683.709 304.067 681.559V681.524ZM640.908 535.509C643.586 537.095 646.793 539.104 650.071 541.184L649.542 543.617C647.075 542.453 644.503 541.29 642.036 540.197C641.648 538.646 641.296 537.095 640.873 535.544L640.908 535.509ZM644.326 549.856C645.489 550.491 646.617 551.09 647.71 551.725L647.252 553.805C646.547 553.558 645.807 553.346 645.066 553.1C644.82 552.007 644.573 550.949 644.326 549.856ZM651.868 533.147C646.476 530.045 641.578 527.365 638.371 525.779C631.216 499.305 622.23 472.901 611.763 448.048L669.595 453.724L651.903 533.112L651.868 533.147ZM681.612 550.844C681.612 550.844 681.401 550.702 681.048 550.491C680.943 550.42 680.837 550.35 680.731 550.279C680.661 550.244 680.625 550.209 680.555 550.174C680.379 550.068 680.203 549.962 680.026 549.856C679.885 549.786 679.744 549.68 679.603 549.61C679.533 549.574 679.498 549.539 679.427 549.504C679.427 549.504 679.322 549.433 679.286 549.433L679.85 546.895C682.211 549.187 683.269 550.526 681.612 550.844ZM764.043 188.098C769.4 181.047 777.681 180.554 777.752 180.518L777.681 178.756L826.315 221.799C827.267 224.443 828.676 226.981 830.333 229.131C829.98 234.701 833.822 239.601 839.249 240.694C837.451 242.421 836.218 244.748 835.936 247.427C835.302 253.526 839.707 258.99 845.804 259.66C846.72 259.766 847.566 259.695 848.447 259.589C849.61 265.512 850.279 271.575 850.279 277.638C842.174 278.626 833.998 281.199 825.998 285.57L762.492 190.495C762.95 189.649 763.444 188.873 764.008 188.133L764.043 188.098Z" fill="#D8D9DD"/>
</svg>
